<?xml version="1.0" standalone="no"?>
<!DOCTYPE svg PUBLIC "-//W3C//DTD SVG 20010904//EN"
 "http://www.w3.org/TR/2001/REC-SVG-20010904/DTD/svg10.dtd">
<svg version="1.0" xmlns="http://www.w3.org/2000/svg"
 width="584.000000pt" height="584.000000pt" viewBox="0 0 584.000000 584.000000"
 preserveAspectRatio="xMidYMid meet">
<metadata>
Created by potrace 1.11, written by Peter Selinger 2001-2013
</metadata>
<g transform="translate(0.000000,584.000000) scale(0.100000,-0.100000)"
fill="#000000" stroke="none">
<path d="M1758 5446 c-1 -2 -30 -6 -63 -9 -115 -12 -234 -64 -314 -140 -113
-108 -195 -303 -227 -542 -15 -114 -10 -376 11 -535 10 -78 51 -300 60 -330 4
-12 -15 -22 -82 -44 -521 -168 -905 -433 -1036 -716 -41 -88 -60 -233 -43
-321 41 -202 214 -417 476 -588 164 -107 421 -225 624 -288 33 -10 56 -23 56
-31 0 -8 -9 -57 -20 -110 -25 -126 -35 -190 -47 -317 -9 -90 -9 -342 0 -423
27 -237 99 -414 222 -538 116 -118 242 -164 433 -159 210 6 475 108 741 287
96 64 260 193 343 268 36 34 23 40 144 -65 388 -337 767 -512 1061 -492 175
12 309 84 410 220 187 252 235 682 137 1214 -13 73 -24 134 -24 137 0 2 37 16
83 31 538 177 940 478 1042 780 141 415 -268 847 -1047 1105 -95 31 -96 32
-88 58 8 28 37 180 45 245 3 20 7 52 9 70 11 77 19 200 19 297 3 501 -156 818
-458 915 -71 23 -248 26 -335 6 -94 -22 -230 -71 -313 -112 -101 -51 -221
-120 -225 -131 -2 -4 -8 -8 -13 -8 -16 0 -261 -185 -319 -240 -3 -3 -27 -25
-52 -49 l-47 -44 -58 50 c-32 27 -69 58 -82 69 -13 10 -31 26 -40 34 -21 20
-154 118 -211 157 -233 157 -492 264 -675 279 -38 3 -75 7 -82 9 -6 2 -13 2
-15 1z m263 -401 c199 -83 404 -216 605 -393 l49 -43 -45 -41 c-206 -187 -398
-313 -640 -419 -99 -43 -434 -169 -438 -164 -5 5 -51 279 -59 353 -4 37 -7
137 -6 222 2 273 64 464 167 517 76 40 227 26 367 -32z m2129 47 c118 -46 195
-279 193 -582 0 -91 -10 -239 -18 -280 -3 -14 -8 -45 -11 -70 -3 -25 -8 -54
-10 -65 -3 -11 -9 -42 -14 -69 -6 -27 -12 -51 -14 -53 -2 -2 -14 1 -27 6 -13
5 -69 26 -124 46 -124 46 -289 118 -375 163 -140 74 -355 227 -519 370 l-64
56 59 54 c240 217 561 403 739 429 22 3 42 7 45 10 8 7 112 -4 140 -15z
m-2831 -1589 c6 -21 13 -54 16 -73 29 -164 35 -202 40 -255 4 -33 8 -76 11
-95 5 -45 5 -297 0 -330 -3 -14 -7 -56 -11 -93 -3 -37 -8 -76 -10 -85 -1 -9
-6 -39 -9 -67 -6 -42 -15 -92 -41 -215 -2 -8 -4 -21 -4 -29 -1 -18 -36 -11
-158 35 -426 158 -755 423 -755 609 0 138 199 331 485 471 121 59 383 162 419
164 4 0 12 -17 17 -37z m3466 -58 c306 -121 572 -319 634 -472 83 -204 -267
-504 -802 -688 -43 -15 -80 -26 -82 -23 -4 4 -9 26 -29 148 -20 113 -24 145
-31 216 -3 32 -8 77 -10 99 -6 51 -6 329 -1 375 3 19 7 63 10 97 11 104 15
139 41 292 3 19 8 38 11 42 5 8 109 -27 259 -86z m-471 -1740 c32 -190 39
-271 39 -415 -1 -288 -65 -495 -176 -568 -37 -24 -49 -27 -131 -26 -76 0 -107
6 -186 33 -169 58 -335 156 -535 317 -130 105 -160 136 -143 149 8 5 59 49
114 96 286 246 511 374 879 500 78 27 112 34 116 26 4 -7 14 -57 23 -112z
m-2637 74 c207 -73 392 -160 537 -252 70 -44 261 -181 276 -197 3 -3 44 -38
93 -78 48 -40 87 -77 87 -81 0 -5 -10 -16 -22 -24 -13 -9 -43 -34 -68 -56 -68
-62 -254 -193 -355 -250 -88 -50 -227 -109 -315 -132 -76 -20 -199 -17 -245 6
-112 56 -174 237 -179 520 -3 157 7 276 34 420 6 28 11 59 13 70 9 50 20 95
22 95 2 0 57 -19 122 -41z"/>
</g>
</svg>
