<?xml version="1.0" encoding="UTF-8"?>
<svg width="310px" height="141px" viewBox="0 0 310 141" version="1.1" xmlns="http://www.w3.org/2000/svg" xmlns:xlink="http://www.w3.org/1999/xlink">
    <!-- Generator: Sketch 49.2 (51160) - http://www.bohemiancoding.com/sketch -->
    <title>Group 2</title>
    <desc>Created with Sketch.</desc>
    <defs>
        <path d="M0.035126763,35.8768973 C0.035126763,30.8548004 2.71062876,26.2125702 7.05739016,23.6926547 L44.6038479,1.92612768 C48.970019,-0.605039954 54.3572421,-0.609519086 58.7276214,1.91438494 L72.3151735,9.7612276 C72.5289791,9.8847008 72.7065729,10.0621457 72.830171,10.2757929 C73.2197858,10.9492673 72.9893416,11.8108802 72.3154597,12.2002594 L23.3563756,40.4895514 C22.9207165,40.7412816 22.6524059,41.2060558 22.6524059,41.7089846 L22.6524059,53.3847642 C22.6524059,53.6331112 22.5867064,53.8770439 22.4619669,54.0918346 C22.0712263,54.7646574 21.2087077,54.9935214 20.5354778,54.6030173 L11.7889234,49.5296154 C11.5740025,49.4049512 11.3299223,49.3392916 11.081425,49.3392916 C10.3030184,49.3392916 9.67199525,49.969933 9.67199525,50.7478684 L9.67199525,80.7721236 C9.67199525,81.2759219 9.9412265,81.7413614 10.3780739,81.992773 L21.9463271,88.6504591 C22.3831747,88.9018706 22.6524059,89.3673102 22.6524059,89.8711085 L22.6524059,98.0962516 C22.6524059,98.3447824 22.5866091,98.5888886 22.4616947,98.8037903 C22.0706954,99.4764629 21.2080888,99.7049958 20.5350092,99.3142329 L7.04975443,91.48524 C2.70729997,88.9641868 0.035126763,84.3243727 0.035126763,79.3054272 L0.035126763,35.8768973 Z M29.0366092,103.446852 L29.0366092,45.4181761 C29.0366092,44.9142676 29.3059571,44.4487439 29.742955,44.1973729 L50.928028,32.011242 C51.3651491,31.7598002 51.9033907,31.760954 52.3394286,32.0142671 L73.5314854,44.3256487 C73.9655335,44.5778062 74.2325983,45.0416767 74.2325983,45.5434268 L74.2325983,103.451863 C74.2325983,103.955049 73.9640163,104.420019 73.5280069,104.671656 L66.765583,108.574492 C66.0915025,108.963528 65.2294852,108.732784 64.8402138,108.059112 C64.7164647,107.844952 64.651315,107.602005 64.651315,107.3547 L64.651315,78.7692289 C64.651315,77.9912931 64.0202916,77.3606517 63.2418852,77.3606517 C62.9928121,77.3606517 62.7481876,77.4266159 62.5329195,77.5518278 L52.3730399,83.4613782 C51.9338756,83.7168203 51.3911284,83.7162418 50.9525109,83.4598633 L40.8578704,77.5594021 C40.1859484,77.1666543 39.3226704,77.3926401 38.9296848,78.0641553 C38.8034229,78.2799057 38.7368772,78.5253467 38.7368772,78.7752885 L38.7368772,107.369644 C38.7368772,108.14758 38.1058541,108.778221 37.3274474,108.778221 C37.0825389,108.778221 36.8418569,108.714443 36.6291225,108.593172 L29.7477138,104.670381 C29.3080377,104.41974 29.0366092,103.95272 29.0366092,103.446852 Z M103.269373,35.1204615 L103.269373,41.7685696 C103.269373,42.2681596 103.004583,42.7303714 102.573487,42.9832959 L91.044403,49.7474206 C90.6133065,50.0003454 90.3485175,50.4625569 90.3485175,50.9621469 L90.3485175,58.7916567 C90.3485175,59.5695925 90.9795405,60.2002339 91.757947,60.2002339 C92.0050445,60.2002339 92.2477995,60.1353113 92.4618718,60.011976 L101.156018,55.0029413 C101.83039,54.6144095 102.692234,54.8457979 103.081001,55.5197617 C103.204411,55.7337045 103.269373,55.9763127 103.269373,56.2232603 L103.269373,79.2914546 C103.269373,84.314306 100.593073,88.9571149 96.2452806,91.4767573 L82.8417747,99.2443861 C82.1683918,99.6346265 81.3059631,99.4054243 80.9154866,98.7324485 C80.7909252,98.5177709 80.7253245,98.2740155 80.7253245,98.0258557 L80.7253245,90.0999651 C80.7253245,89.596825 80.9938589,89.131889 81.4298072,88.8802357 L92.9215306,82.2465847 C93.3574789,81.9949314 93.626013,81.5299954 93.626013,81.026855 L93.626013,73.0698028 C93.626013,72.291867 92.99499,71.6612256 92.2165832,71.6612256 C91.96843,71.6612256 91.7246753,71.726704 91.5099624,71.8510411 L82.8413754,76.8708869 C82.1678643,77.2609069 81.3055108,77.0314221 80.9152548,76.3583186 C80.7908425,76.1437356 80.7253245,75.9001283 80.7253245,75.6521252 L80.7253245,41.7978635 C80.7253245,41.2958142 80.4579438,40.8317141 80.0234867,40.5796646 L60.0850562,29.0124192 C59.4118564,28.6218634 59.1829196,27.7598492 59.5737117,27.0870565 C59.6969478,26.8748917 59.873492,26.6985718 60.0858671,26.5755514 L80.0188927,15.0291465 C80.4558339,14.776044 80.9948823,14.7759284 81.4319319,15.0288438 L96.8143512,23.9304618 C100.809514,26.2424135 103.269373,30.5066631 103.269373,35.1204615 Z" id="path-1"></path>
    </defs>
    <g id="Page-1" stroke="none" stroke-width="1" fill="none" fill-rule="evenodd">
        <g id="Group-2">
            <g id="graphcms_logo_square">
                <path d="M74.6098392,2.83654244 L117.459496,27.5350003 C123.983891,31.2956489 128,38.225153 128,45.7218746 L128,95.278126 C128,102.774848 123.983891,109.704352 117.459496,113.465 L74.6098392,138.163458 C68.048303,141.945514 59.9516973,141.945514 53.390161,138.163458 L10.5405042,113.465 C4.01610874,109.704352 0,102.774848 0,95.278126 L0,45.7218746 C0,38.225153 4.01610874,31.2956489 10.5405042,27.5350003 L53.390161,2.83654244 C59.9516973,-0.945514146 68.048303,-0.945514146 74.6098392,2.83654244 Z" id="BG" fill="#4A1357" fill-rule="nonzero"></path>
                <path d="M56.8862214,10.1035002 L15.3216113,33.9551229 C10.9470769,36.4654253 8.25432078,41.0909971 8.25432078,46.0951974 L8.25432078,93.9048024 C8.25432078,98.9090027 10.9470769,103.534574 15.3216113,106.044877 L56.8862214,129.8965 C61.2856583,132.421092 66.714342,132.421092 71.1137789,129.8965 L112.678389,106.044877 C117.052923,103.534574 119.745679,98.9090027 119.745679,93.9048024 L119.745679,46.0951974 C119.745679,41.0909971 117.052923,36.4654253 112.678389,33.9551229 L71.1137789,10.1035002 C66.714342,7.57890755 61.285658,7.57890755 56.8862214,10.1035002 Z M114.812522,30.3131004 C120.499417,33.5764936 124,39.5897372 124,46.0951974 L124,93.9048024 C124,100.410263 120.499417,106.423506 114.812522,109.686899 L73.2479124,133.538522 C67.5286446,136.820493 60.4713557,136.820493 54.7520876,133.538522 L13.1874777,109.686899 C7.50058297,106.423506 4,100.410263 4,93.9048024 L4,46.0951974 C4,39.5897372 7.50058297,33.5764936 13.1874777,30.3131004 L54.7520876,6.46147783 C60.4713557,3.17950739 67.5286446,3.17950739 73.2479124,6.46147783 L114.812522,30.3131004 Z" id="Path" fill="#FFFFFF" fill-rule="nonzero"></path>
                <g id="Group-Clipped" transform="translate(12.000000, 12.000000)">
                    <g id="Group">
                        <g id="Group-Clipped">
                            <mask id="mask-2" fill="white">
                                <use xlink:href="#path-1"></use>
                            </mask>
                            <g id="path-1"></g>
                            <g id="Group" mask="url(#mask-2)">
                                <g transform="translate(-0.837720, -2.498486)">
                                    <g transform="translate(0.177872, 0.201594)">
                                        <g fill-rule="nonzero">
                                            <g transform="translate(0.035127, 0.056065)">
                                                <polygon id="Polygon-2-Copy" fill="#E6E6E6" points="110.906505 25.66951 110.906505 94.94923 51.0053677 129.58909 50.877624 60.1431924"></polygon>
                                                <polygon id="Polygon-2-Copy-2" fill="#D2D2D2" points="52.3973006 59.7465483 52.3973006 119.580965 0.700816834 89.6857236 0.700816834 29.8952411"></polygon>
                                                <polygon id="Polygon-2" fill="#FFFFFF" points="52.3973006 0 104.766751 30.2844069 52.2856186 60.5688139 0.027850157 30.2844069"></polygon>
                                            </g>
                                        </g>
                                    </g>
                                </g>
                            </g>
                        </g>
                    </g>
                </g>
            </g>
            <path d="M159.458722,73.158949 C158.486236,72.268166 158,70.9320113 158,69.1504451 L158,57.8323157 C158,56.0507495 158.486236,54.7145948 159.458722,53.8238116 C160.431208,52.9330286 161.827175,52.4876435 163.646665,52.4876435 L167.881664,52.4876435 L167.881664,54.8770265 L163.332961,54.8770265 C162.559155,54.8770265 161.931754,55.1075786 161.45074,55.5686899 C160.969725,56.0298012 160.729221,56.5852224 160.729221,57.23497 L160.729221,69.7477908 C160.729221,70.3975384 160.969725,70.9529596 161.45074,71.4140709 C161.931754,71.8751821 162.559155,72.1057343 163.332961,72.1057343 L166.219035,72.1057343 L166.219035,65.2834175 L163.583924,65.2834175 L163.583924,62.925474 L168.822774,62.925474 L168.822774,74.4951171 L163.646665,74.4951171 C161.827175,74.4951171 160.431208,74.0497322 159.458722,73.158949 Z M181.910705,65.3777352 L179.118743,65.3777352 L179.118743,74.4951171 L176.389522,74.4951171 L176.389522,52.4876435 L182.004816,52.4876435 C183.782479,52.4876435 185.126163,52.8806303 186.035908,53.6666155 C186.945653,54.4526005 187.400518,55.6944384 187.400518,57.3921663 L187.400518,60.4103342 C187.400518,62.7787694 186.459417,64.2563991 184.577186,64.8432681 L188.937666,74.4951171 L185.957482,74.4951171 L181.910705,65.3777352 Z M184.122316,55.3800544 C183.756326,55.0237412 183.17598,54.8455873 182.381261,54.8455873 L179.118743,54.8455873 L179.118743,63.0197916 L182.381261,63.0197916 C183.17598,63.0197916 183.756326,62.8363979 184.122316,62.4696048 C184.488305,62.1028118 184.671297,61.5211915 184.671297,60.7247266 L184.671297,57.1092131 C184.671297,56.3127482 184.488305,55.7363677 184.122316,55.3800544 Z M204.848929,74.4951171 L203.656856,68.9303704 L197.539635,68.9303704 L196.316191,74.4951171 L193.524229,74.4951171 L198.82582,52.4876435 L202.433411,52.4876435 L207.640891,74.4951171 L204.848929,74.4951171 Z M200.58256,54.5626339 L198.041561,66.5724266 L203.15493,66.5724266 L200.58256,54.5626339 Z M223.458043,64.7332307 C222.558755,65.5401754 221.230757,65.9436417 219.474008,65.9436417 L216.525194,65.9436417 L216.525194,74.4951171 L213.795972,74.4951171 L213.795972,52.4876435 L219.411267,52.4876435 C221.18893,52.4876435 222.532613,52.8806303 223.442358,53.6666155 C224.352103,54.4526005 224.806969,55.6944384 224.806969,57.3921663 L224.806969,60.9762405 C224.806969,62.6739684 224.357332,63.926286 223.458043,64.7332307 Z M221.528766,55.3800544 C221.162777,55.0237412 220.582431,54.8455873 219.787711,54.8455873 L216.525194,54.8455873 L216.525194,63.5856982 L219.787711,63.5856982 C220.582431,63.5856982 221.162777,63.4023044 221.528766,63.0355114 C221.894756,62.6687183 222.077748,62.087098 222.077748,61.2906331 L222.077748,57.1092131 C222.077748,56.3127482 221.894756,55.7363677 221.528766,55.3800544 Z M241.094676,74.4951171 L241.094676,64.3716794 L234.632383,64.3716794 L234.632383,74.4951171 L231.903162,74.4951171 L231.903162,52.4876435 L234.632383,52.4876435 L234.632383,62.0451749 L241.094676,62.0451749 L241.094676,52.4876435 L243.823899,52.4876435 L243.823899,74.4951171 L241.094676,74.4951171 Z M261.770217,74.9522084 C261.602907,74.9959234 258.225367,74.9911661 257.974403,74.9911661 C256.782324,74.9911661 255.747113,75.021309 254.868738,74.6934451 C253.990362,74.3655812 253.263623,73.7590421 252.688497,72.8738095 C252.113371,71.9885768 251.689876,70.76457 251.417998,69.201752 C251.14612,67.638934 251.167033,58.6336654 251.480738,57.1364201 C251.794444,55.6391749 252.264994,54.4971326 252.892405,53.7102594 C253.519816,52.923386 254.29361,52.4689666 255.213812,52.2176043 C256.134014,51.9662419 258.863229,51.9863372 259.197847,52.0191236 C260.634403,52.0159517 261.491861,52.0231794 261.770217,52.0408065 L261.770217,55.8138677 C261.260551,55.8138677 258.539072,55.8396008 257.974403,55.8396008 C257.514302,55.8396008 257.082942,55.9841954 256.798015,56.1501883 C256.513087,56.3161813 256.207208,56.5289906 255.99807,57.0535729 C255.788934,57.5781551 255.632083,58.2784687 255.527516,59.283918 C255.422946,60.2893674 255.417718,66.4203819 255.511831,67.4476887 C255.605941,68.4749958 255.752334,69.2080951 255.951015,69.7763927 C256.149695,70.3446901 256.416341,70.7217279 256.750959,70.9075175 C257.085578,71.0933071 257.521657,71.1862004 257.974403,71.1862004 C258.622727,71.1862004 261.382486,71.2119335 261.770217,71.2119335 L261.770217,74.9522084 Z M280.536182,74.955735 L280.536182,56.5840233 L277.838331,66.6040633 L274.575814,66.6040633 L271.752482,56.5840233 L271.752482,74.955735 L267.925298,74.955735 L267.925298,52.0053754 L274.450333,52.0053754 L276.301184,60.8248708 L278.183405,52.0053754 L284.426107,52.0053754 L284.426107,74.955735 L280.536182,74.955735 Z M302,68.1361995 C302,69.6662313 301.817009,70.8957024 301.451018,71.8246502 C301.08503,72.753598 300.58311,73.4694234 299.945241,73.9721481 C299.307375,74.4748728 298.544036,74.738041 297.655204,74.8910441 C296.766375,75.0440473 295.799132,74.9911661 294.753447,74.9911661 C294.418827,74.9911661 290.694357,74.979602 290.298856,74.9522084 L290.298856,71.3094105 C290.596874,71.3094105 294.126038,71.3164637 294.439744,71.3164637 C295.422686,71.3164637 296.201708,71.1033552 296.776834,70.6771322 C297.351962,70.2509091 297.639519,69.5132263 297.639519,68.4640618 C297.639519,67.8739068 297.582008,67.3711896 297.466983,66.9558954 C297.351958,66.540601 297.179422,66.2018134 296.949372,65.9395223 C296.719321,65.6772312 296.436992,65.4695872 296.102372,65.316584 C295.767753,65.1635809 295.391314,65.0433657 294.973038,64.9559354 C293.21629,64.5843563 291.966718,63.8739953 291.224281,62.8248306 C290.481845,61.7756661 290.110633,60.289372 290.110633,58.3659036 C290.110633,57.1418783 290.272712,56.1145867 290.596874,55.2839983 C290.921035,54.4534096 291.402043,53.7758344 292.039911,53.2512521 C292.677778,52.7266697 293.462029,52.4790136 294.392687,52.2495089 C295.323346,52.0200041 296.384741,52.0155295 297.576779,52.034635 C297.961835,52.0408065 301.235193,52.0053754 301.466703,52.0089021 L301.466703,55.6215714 C301.154124,55.6215714 297.534953,55.6446467 297.263075,55.6446467 C296.363788,55.6446467 295.673647,55.8304335 295.192631,56.2020127 C294.711618,56.5735916 294.471114,57.1746665 294.471114,58.0052552 C294.471114,58.5298373 294.507712,58.9615184 294.580909,59.3003112 C294.654107,59.6391039 294.784815,59.9123196 294.973038,60.1199669 C295.161263,60.3276141 295.412222,60.4970079 295.725928,60.6281534 C296.039633,60.7592989 296.447443,60.8795139 296.949372,60.9888018 C297.702263,61.141805 298.387177,61.3767706 299.004131,61.6937057 C299.621084,62.0106409 300.154375,62.442322 300.604018,62.9887617 C301.053664,63.5352017 301.398733,64.2237055 301.639241,65.0542942 C301.879749,65.8848826 302,66.9121742 302,68.1361995 Z" id="Combined-Shape" fill="#4A1357" fill-rule="nonzero"></path>
            <path d="M165.179688,37.828125 C165.179688,38.8593802 164.808597,39.671872 164.066406,40.265625 C163.324215,40.859378 162.291673,41.15625 160.96875,41.15625 C159.749994,41.15625 158.67188,40.9270856 157.734375,40.46875 L157.734375,38.21875 C158.505212,38.5625017 159.157549,38.8046868 159.691406,38.9453125 C160.225263,39.0859382 160.713539,39.15625 161.15625,39.15625 C161.687503,39.15625 162.095051,39.0546885 162.378906,38.8515625 C162.662762,38.6484365 162.804688,38.3463562 162.804688,37.9453125 C162.804688,37.721353 162.742188,37.5221363 162.617188,37.3476562 C162.492187,37.1731762 162.308595,37.0052091 162.066406,36.84375 C161.824218,36.6822909 161.330733,36.4244809 160.585938,36.0703125 C159.888017,35.7421859 159.364585,35.4270848 159.015625,35.125 C158.666665,34.8229152 158.388022,34.4713562 158.179688,34.0703125 C157.971353,33.6692688 157.867188,33.2005235 157.867188,32.6640625 C157.867188,31.6536408 158.209632,30.8593779 158.894531,30.28125 C159.579431,29.7031221 160.526036,29.4140625 161.734375,29.4140625 C162.328128,29.4140625 162.894529,29.4843743 163.433594,29.625 C163.972659,29.7656257 164.536455,29.9635404 165.125,30.21875 L164.34375,32.1015625 C163.734372,31.8515612 163.230471,31.6770838 162.832031,31.578125 C162.433592,31.4791662 162.041669,31.4296875 161.65625,31.4296875 C161.197914,31.4296875 160.846355,31.5364573 160.601562,31.75 C160.35677,31.9635427 160.234375,32.2421858 160.234375,32.5859375 C160.234375,32.7994802 160.283854,32.9856763 160.382812,33.1445312 C160.481771,33.3033862 160.639322,33.4570305 160.855469,33.6054688 C161.071616,33.753907 161.583329,34.0208314 162.390625,34.40625 C163.458339,34.9166692 164.190102,35.4283829 164.585938,35.9414062 C164.981773,36.4544296 165.179688,37.0833296 165.179688,37.828125 Z M172.928819,41.15625 C171.902772,41.15625 171.098093,40.7838579 170.514757,40.0390625 L170.389757,40.0390625 C170.47309,40.7682328 170.514757,41.1901036 170.514757,41.3046875 L170.514757,44.84375 L168.131944,44.84375 L168.131944,32.265625 L170.069444,32.265625 L170.405382,33.3984375 L170.514757,33.3984375 C171.072051,32.5338498 171.897564,32.1015625 172.991319,32.1015625 C174.022574,32.1015625 174.829858,32.499996 175.413194,33.296875 C175.99653,34.093754 176.288194,35.2005137 176.288194,36.6171875 C176.288194,37.5494838 176.151477,38.3593716 175.878038,39.046875 C175.604599,39.7343784 175.21528,40.2578107 174.710069,40.6171875 C174.204858,40.9765643 173.611114,41.15625 172.928819,41.15625 Z M172.225694,34.0078125 C171.637149,34.0078125 171.207466,34.1888003 170.936632,34.5507812 C170.665797,34.9127622 170.525173,35.5104125 170.514757,36.34375 L170.514757,36.6015625 C170.514757,37.5390672 170.654078,38.2109355 170.932725,38.6171875 C171.211372,39.0234395 171.652774,39.2265625 172.256944,39.2265625 C173.324658,39.2265625 173.858507,38.346363 173.858507,36.5859375 C173.858507,35.7265582 173.726997,35.0820334 173.463975,34.6523438 C173.200953,34.2226541 172.788197,34.0078125 172.225694,34.0078125 Z M181.224826,36.6171875 C181.224826,37.4817752 181.366751,38.1354145 181.650607,38.578125 C181.934462,39.0208355 182.396697,39.2421875 183.037326,39.2421875 C183.672745,39.2421875 184.129772,39.0221376 184.408419,38.5820312 C184.687066,38.1419249 184.826388,37.4869835 184.826388,36.6171875 C184.826388,35.7525998 184.685764,35.1041688 184.404513,34.671875 C184.123262,34.2395812 183.662329,34.0234375 183.021701,34.0234375 C182.386281,34.0234375 181.927952,34.2382791 181.646701,34.6679688 C181.365449,35.0976584 181.224826,35.7473915 181.224826,36.6171875 Z M187.263888,36.6171875 C187.263888,38.0390696 186.888892,39.1510377 186.138888,39.953125 C185.388884,40.7552123 184.344624,41.15625 183.006076,41.15625 C182.16753,41.15625 181.427954,40.9726581 180.787326,40.6054688 C180.146697,40.2382794 179.654515,39.7109409 179.310763,39.0234375 C178.967011,38.3359341 178.795138,37.5338588 178.795138,36.6171875 C178.795138,35.190097 179.16753,34.0807331 179.912326,33.2890625 C180.657121,32.4973919 181.703985,32.1015625 183.052951,32.1015625 C183.891496,32.1015625 184.631072,32.2838523 185.271701,32.6484375 C185.912329,33.0130227 186.404511,33.5364549 186.748263,34.21875 C187.092015,34.9010451 187.263888,35.7005162 187.263888,36.6171875 Z M198.364582,41 L195.981769,41 L195.981769,35.8984375 C195.981769,35.268226 195.869791,34.7955745 195.645832,34.4804688 C195.421873,34.165363 195.065105,34.0078125 194.575519,34.0078125 C193.90885,34.0078125 193.427083,34.2304665 193.130207,34.6757812 C192.833331,35.121096 192.684894,35.8593698 192.684894,36.890625 L192.684894,41 L190.302082,41 L190.302082,32.265625 L192.122394,32.265625 L192.442707,33.3828125 L192.575519,33.3828125 C192.841146,32.9609354 193.207028,32.6419282 193.673176,32.4257812 C194.139324,32.2096343 194.669267,32.1015625 195.263019,32.1015625 C196.27865,32.1015625 197.049475,32.3762993 197.575519,32.9257812 C198.101564,33.4752632 198.364582,34.268224 198.364582,35.3046875 L198.364582,41 Z M207.980901,38.40625 C207.980901,39.3020878 207.669706,39.9843727 207.047307,40.453125 C206.424908,40.9218773 205.493928,41.15625 204.254339,41.15625 C203.618919,41.15625 203.077257,41.1132817 202.629339,41.0273438 C202.18142,40.9414058 201.762153,40.815105 201.371526,40.6484375 L201.371526,38.6796875 C201.814237,38.8880219 202.312929,39.0624993 202.86762,39.203125 C203.42231,39.3437507 203.910586,39.4140625 204.332464,39.4140625 C205.197051,39.4140625 205.629339,39.164065 205.629339,38.6640625 C205.629339,38.4765616 205.572047,38.3242193 205.457464,38.2070312 C205.34288,38.0898432 205.144965,37.957032 204.863714,37.8085938 C204.582462,37.6601555 204.207466,37.4869802 203.738714,37.2890625 C203.066835,37.0078111 202.57335,36.747397 202.258245,36.5078125 C201.943139,36.268228 201.713975,35.9934911 201.570745,35.6835938 C201.427515,35.3736964 201.355901,34.9921898 201.355901,34.5390625 C201.355901,33.763017 201.656679,33.1627625 202.258245,32.7382812 C202.85981,32.3138 203.712666,32.1015625 204.816839,32.1015625 C205.868927,32.1015625 206.892354,32.3307269 207.887151,32.7890625 L207.168401,34.5078125 C206.730899,34.3203116 206.322049,34.1666673 205.941839,34.046875 C205.561628,33.9270827 205.173611,33.8671875 204.777776,33.8671875 C204.074647,33.8671875 203.723089,34.0572898 203.723089,34.4375 C203.723089,34.6510427 203.836369,34.8359367 204.062932,34.9921875 C204.289496,35.1484383 204.785585,35.3802068 205.551214,35.6875 C206.233509,35.963543 206.733504,36.221353 207.051214,36.4609375 C207.368923,36.700522 207.603296,36.9765609 207.754339,37.2890625 C207.905381,37.6015641 207.980901,37.9739562 207.980901,38.40625 Z M212.808157,36.6171875 C212.808157,37.4817752 212.950083,38.1354145 213.233939,38.578125 C213.517794,39.0208355 213.980029,39.2421875 214.620657,39.2421875 C215.256077,39.2421875 215.713104,39.0221376 215.991751,38.5820312 C216.270398,38.1419249 216.40972,37.4869835 216.40972,36.6171875 C216.40972,35.7525998 216.269096,35.1041688 215.987845,34.671875 C215.706594,34.2395812 215.245661,34.0234375 214.605032,34.0234375 C213.969613,34.0234375 213.511284,34.2382791 213.230032,34.6679688 C212.948781,35.0976584 212.808157,35.7473915 212.808157,36.6171875 Z M218.84722,36.6171875 C218.84722,38.0390696 218.472224,39.1510377 217.72222,39.953125 C216.972216,40.7552123 215.927956,41.15625 214.589407,41.15625 C213.750862,41.15625 213.011286,40.9726581 212.370657,40.6054688 C211.730029,40.2382794 211.237847,39.7109409 210.894095,39.0234375 C210.550343,38.3359341 210.37847,37.5338588 210.37847,36.6171875 C210.37847,35.190097 210.750862,34.0807331 211.495657,33.2890625 C212.240453,32.4973919 213.287317,32.1015625 214.636282,32.1015625 C215.474828,32.1015625 216.214404,32.2838523 216.855032,32.6484375 C217.495661,33.0130227 217.987843,33.5364549 218.331595,34.21875 C218.675347,34.9010451 218.84722,35.7005162 218.84722,36.6171875 Z M226.760414,32.1015625 C227.083332,32.1015625 227.351559,32.1249998 227.565102,32.171875 L227.385414,34.40625 C227.192705,34.3541664 226.958332,34.328125 226.682289,34.328125 C225.921869,34.328125 225.329427,34.5234355 224.904945,34.9140625 C224.480464,35.3046895 224.268227,35.851559 224.268227,36.5546875 L224.268227,41 L221.885414,41 L221.885414,32.265625 L223.690102,32.265625 L224.041664,33.734375 L224.158852,33.734375 C224.429686,33.2447892 224.795568,32.8502619 225.256508,32.5507812 C225.717448,32.2513006 226.218745,32.1015625 226.760414,32.1015625 Z M233.517358,33.796875 C233.012147,33.796875 232.616318,33.9570296 232.329858,34.2773438 C232.043398,34.5976579 231.879337,35.0520804 231.837671,35.640625 L235.181421,35.640625 C235.171004,35.0520804 235.017359,34.5976579 234.720483,34.2773438 C234.423607,33.9570296 234.022569,33.796875 233.517358,33.796875 Z M233.853296,41.15625 C232.447038,41.15625 231.348091,40.768233 230.556421,39.9921875 C229.76475,39.216142 229.368921,38.1171946 229.368921,36.6953125 C229.368921,35.2317635 229.734802,34.1002644 230.466577,33.3007812 C231.198351,32.5012981 232.21006,32.1015625 233.501733,32.1015625 C234.736114,32.1015625 235.697042,32.4531215 236.384546,33.15625 C237.072049,33.8593785 237.415796,34.830723 237.415796,36.0703125 L237.415796,37.2265625 L231.782983,37.2265625 C231.809025,37.9036492 232.009544,38.4322898 232.384546,38.8125 C232.759547,39.1927102 233.285584,39.3828125 233.962671,39.3828125 C234.488715,39.3828125 234.986106,39.3281255 235.454858,39.21875 C235.92361,39.1093745 236.413189,38.934897 236.923608,38.6953125 L236.923608,40.5390625 C236.506939,40.7473969 236.061631,40.9023432 235.587671,41.0039062 C235.11371,41.1054693 234.535591,41.15625 233.853296,41.15625 Z M243.188365,41.15625 C242.162318,41.15625 241.356336,40.7578165 240.770396,39.9609375 C240.184455,39.1640585 239.89149,38.0599029 239.89149,36.6484375 C239.89149,35.2161387 240.189664,34.1002644 240.786021,33.3007812 C241.382378,32.5012981 242.203984,32.1015625 243.250865,32.1015625 C244.349828,32.1015625 245.188362,32.5286416 245.76649,33.3828125 L245.844615,33.3828125 C245.724822,32.7317676 245.664927,32.1510442 245.664927,31.640625 L245.664927,28.84375 L248.055552,28.84375 L248.055552,41 L246.227427,41 L245.76649,39.8671875 L245.664927,39.8671875 C245.123258,40.7265668 244.297745,41.15625 243.188365,41.15625 Z M244.024302,39.2578125 C244.63368,39.2578125 245.08029,39.0807309 245.364146,38.7265625 C245.648001,38.3723941 245.802948,37.7708376 245.82899,36.921875 L245.82899,36.6640625 C245.82899,35.7265578 245.68446,35.0546895 245.395396,34.6484375 C245.106332,34.2421855 244.636284,34.0390625 243.98524,34.0390625 C243.453987,34.0390625 243.041231,34.2643207 242.746958,34.7148438 C242.452686,35.1653668 242.305552,35.8203082 242.305552,36.6796875 C242.305552,37.5390668 242.453988,38.1835916 242.750865,38.6132812 C243.047741,39.0429709 243.472216,39.2578125 244.024302,39.2578125 Z M261.702253,32.1015625 C262.733508,32.1015625 263.540791,32.5039022 264.124128,33.3085938 C264.707464,34.1132853 264.999128,35.2161388 264.999128,36.6171875 C264.999128,38.059903 264.698349,39.1770794 264.096784,39.96875 C263.495218,40.7604206 262.676216,41.15625 261.639753,41.15625 C260.613706,41.15625 259.809026,40.7838579 259.22569,40.0390625 L259.061628,40.0390625 L258.66319,41 L256.842878,41 L256.842878,28.84375 L259.22569,28.84375 L259.22569,31.671875 C259.22569,32.0312518 259.19444,32.6067669 259.13194,33.3984375 L259.22569,33.3984375 C259.782984,32.5338498 260.608497,32.1015625 261.702253,32.1015625 Z M260.936628,34.0078125 C260.348083,34.0078125 259.9184,34.1888003 259.647565,34.5507812 C259.37673,34.9127622 259.236107,35.5104125 259.22569,36.34375 L259.22569,36.6015625 C259.22569,37.5390672 259.365012,38.2109355 259.643659,38.6171875 C259.922306,39.0234395 260.363708,39.2265625 260.967878,39.2265625 C261.457463,39.2265625 261.846782,39.0013043 262.135846,38.5507812 C262.42491,38.1002582 262.56944,37.4453168 262.56944,36.5859375 C262.56944,35.7265582 262.423608,35.0820334 262.13194,34.6523438 C261.840272,34.2226541 261.441838,34.0078125 260.936628,34.0078125 Z M266.467009,32.265625 L269.076384,32.265625 L270.724822,37.1796875 C270.865447,37.606773 270.9618,38.1119762 271.013884,38.6953125 L271.060759,38.6953125 C271.118051,38.1588515 271.230029,37.6536482 271.396697,37.1796875 L273.013884,32.265625 L275.568572,32.265625 L271.873259,42.1171875 C271.534716,43.0286504 271.051648,43.7109352 270.42404,44.1640625 C269.796433,44.6171898 269.063367,44.84375 268.224822,44.84375 C267.813361,44.84375 267.409719,44.7994796 267.013884,44.7109375 L267.013884,42.8203125 C267.300344,42.8880212 267.612841,42.921875 267.951384,42.921875 C268.373261,42.921875 268.741747,42.79297 269.056853,42.5351562 C269.371958,42.2773425 269.61805,41.8880234 269.795134,41.3671875 L269.935759,40.9375 L266.467009,32.265625 Z M277.552078,39.8828125 C277.552078,39.4453103 277.669264,39.1145845 277.903641,38.890625 C278.138017,38.6666655 278.479159,38.5546875 278.927078,38.5546875 C279.359372,38.5546875 279.694004,38.6692697 279.930984,38.8984375 C280.167965,39.1276053 280.286453,39.455727 280.286453,39.8828125 C280.286453,40.2942729 280.166663,40.6184884 279.927078,40.8554688 C279.687493,41.0924491 279.354163,41.2109375 278.927078,41.2109375 C278.489576,41.2109375 278.151038,41.0950532 277.911453,40.8632812 C277.671868,40.6315093 277.552078,40.3046896 277.552078,39.8828125 Z M277.552078,33.4296875 C277.552078,32.9921853 277.669264,32.6614595 277.903641,32.4375 C278.138017,32.2135405 278.479159,32.1015625 278.927078,32.1015625 C279.359372,32.1015625 279.694004,32.2161447 279.930984,32.4453125 C280.167965,32.6744803 280.286453,33.002602 280.286453,33.4296875 C280.286453,33.8515646 280.16536,34.1783843 279.923172,34.4101562 C279.680983,34.6419282 279.348955,34.7578125 278.927078,34.7578125 C278.489576,34.7578125 278.151038,34.6432303 277.911453,34.4140625 C277.671868,34.1848947 277.552078,33.856773 277.552078,33.4296875 Z" id="Sponsored-by:" fill="#9BB2D0"></path>
            <path d="M164.085938,107 L162.757812,107 L162.757812,96.7578125 L159.140625,96.7578125 L159.140625,95.578125 L167.703125,95.578125 L167.703125,96.7578125 L164.085938,96.7578125 L164.085938,107 Z M176.155381,107 L176.155381,101.460938 C176.155381,100.763017 175.996529,100.242189 175.678819,99.8984375 C175.361109,99.5546858 174.863718,99.3828125 174.186631,99.3828125 C173.285585,99.3828125 172.62804,99.6276017 172.213975,100.117188 C171.799911,100.606773 171.592881,101.408849 171.592881,102.523438 L171.592881,107 L170.296006,107 L170.296006,94.84375 L171.592881,94.84375 L171.592881,98.5234375 C171.592881,98.966148 171.572048,99.3333319 171.530381,99.625 L171.608506,99.625 C171.863716,99.2135396 172.226994,98.8893241 172.69835,98.6523438 C173.169707,98.4153634 173.707462,98.296875 174.311631,98.296875 C175.358512,98.296875 176.14366,98.5455704 176.6671,99.0429688 C177.19054,99.5403671 177.452256,100.330724 177.452256,101.414062 L177.452256,107 L176.155381,107 Z M184.80295,107.15625 C183.537319,107.15625 182.538631,106.770837 181.806857,106 C181.075082,105.229163 180.7092,104.158861 180.7092,102.789062 C180.7092,101.408847 181.049041,100.312504 181.728732,99.5 C182.408423,98.6874959 183.321174,98.28125 184.467013,98.28125 C185.539935,98.28125 186.388885,98.6341111 187.013888,99.3398438 C187.638891,100.045576 187.951388,100.976557 187.951388,102.132812 L187.951388,102.953125 L182.05295,102.953125 C182.078992,103.958338 182.332896,104.721352 182.814669,105.242188 C183.296442,105.763023 183.974821,106.023438 184.849825,106.023438 C185.771705,106.023438 186.683154,105.830731 187.5842,105.445312 L187.5842,106.601562 C187.125865,106.79948 186.692275,106.941406 186.283419,107.027344 C185.874563,107.113282 185.381078,107.15625 184.80295,107.15625 Z M184.451388,99.3671875 C183.763884,99.3671875 183.215713,99.5911436 182.806857,100.039062 C182.398,100.486981 182.157117,101.106767 182.0842,101.898438 L186.560763,101.898438 C186.560763,101.080725 186.378473,100.454429 186.013888,100.019531 C185.649303,99.5846332 185.128475,99.3671875 184.451388,99.3671875 Z M201.676213,101.015625 L205.559026,101.015625 L205.559026,106.570312 C204.954856,106.763022 204.340279,106.908854 203.715276,107.007812 C203.090273,107.106771 202.366322,107.15625 201.543401,107.15625 C199.814225,107.15625 198.467885,106.641932 197.504338,105.613281 C196.540792,104.58463 196.059026,103.143238 196.059026,101.289062 C196.059026,100.101557 196.297305,99.0612024 196.77387,98.1679688 C197.250434,97.2747351 197.936625,96.5924503 198.832463,96.1210938 C199.728301,95.6497372 200.77777,95.4140625 201.980901,95.4140625 C203.199657,95.4140625 204.335062,95.6380186 205.387151,96.0859375 L204.871526,97.2578125 C203.840271,96.8203103 202.848093,96.6015625 201.894963,96.6015625 C200.504331,96.6015625 199.418405,97.0156209 198.637151,97.84375 C197.855897,98.6718791 197.465276,99.8203052 197.465276,101.289062 C197.465276,102.830737 197.841574,103.999996 198.594182,104.796875 C199.34679,105.593754 200.452248,105.992188 201.910588,105.992188 C202.702259,105.992188 203.475689,105.901043 204.230901,105.71875 L204.230901,102.203125 L201.676213,102.203125 L201.676213,101.015625 Z M213.081595,98.28125 C213.461805,98.28125 213.802947,98.3124997 214.105032,98.375 L213.925345,99.578125 C213.571176,99.4999996 213.258679,99.4609375 212.987845,99.4609375 C212.295133,99.4609375 211.702691,99.7421847 211.210501,100.304688 C210.718311,100.86719 210.47222,101.567704 210.47222,102.40625 L210.47222,107 L209.175345,107 L209.175345,98.4375 L210.245657,98.4375 L210.394095,100.023438 L210.456595,100.023438 C210.774305,99.466143 211.157113,99.0364598 211.605032,98.734375 C212.052951,98.4322902 212.545134,98.28125 213.081595,98.28125 Z M221.721351,107 L221.463539,105.78125 L221.401039,105.78125 C220.973953,106.317711 220.548176,106.680989 220.123695,106.871094 C219.699214,107.061199 219.169271,107.15625 218.533851,107.15625 C217.684889,107.15625 217.019531,106.937502 216.537757,106.5 C216.055984,106.062498 215.815101,105.440108 215.815101,104.632812 C215.815101,102.903637 217.1979,101.997396 219.963539,101.914062 L221.416664,101.867188 L221.416664,101.335938 C221.416664,100.664059 221.272134,100.16797 220.98307,99.8476562 C220.694006,99.5273421 220.231771,99.3671875 219.596351,99.3671875 C218.882806,99.3671875 218.075522,99.5859353 217.174476,100.023438 L216.776039,99.03125 C217.197916,98.8020822 217.660151,98.6223965 218.162757,98.4921875 C218.665364,98.3619785 219.169265,98.296875 219.674476,98.296875 C220.695315,98.296875 221.451817,98.5234352 221.944007,98.9765625 C222.436197,99.4296898 222.682289,100.156245 222.682289,101.15625 L222.682289,107 L221.721351,107 Z M218.791664,106.085938 C219.598959,106.085938 220.233068,105.864586 220.694007,105.421875 C221.154947,104.979164 221.385414,104.359379 221.385414,103.5625 L221.385414,102.789062 L220.088539,102.84375 C219.057283,102.880209 218.313801,103.040363 217.85807,103.324219 C217.402338,103.608074 217.174476,104.049476 217.174476,104.648438 C217.174476,105.11719 217.316402,105.473957 217.600257,105.71875 C217.884113,105.963543 218.281244,106.085938 218.791664,106.085938 Z M230.407983,107.15625 C229.850688,107.15625 229.341579,107.053386 228.880639,106.847656 C228.419699,106.641926 228.032984,106.325523 227.720483,105.898438 L227.626733,105.898438 C227.689233,106.39844 227.720483,106.872394 227.720483,107.320312 L227.720483,110.84375 L226.423608,110.84375 L226.423608,98.4375 L227.478295,98.4375 L227.657983,99.609375 L227.720483,99.609375 C228.053818,99.1406227 228.441835,98.8020844 228.884545,98.59375 C229.327256,98.3854156 229.835063,98.28125 230.407983,98.28125 C231.543405,98.28125 232.419698,98.669267 233.036889,99.4453125 C233.654079,100.221358 233.96267,101.309889 233.96267,102.710938 C233.96267,104.117195 233.648871,105.209632 233.021264,105.988281 C232.393657,106.766931 231.522571,107.15625 230.407983,107.15625 Z M230.220483,99.3828125 C229.345478,99.3828125 228.712672,99.6249976 228.322045,100.109375 C227.931418,100.593752 227.730899,101.364578 227.720483,102.421875 L227.720483,102.710938 C227.720483,103.914069 227.921001,104.774737 228.322045,105.292969 C228.723089,105.811201 229.366311,106.070312 230.251733,106.070312 C230.99132,106.070312 231.570741,105.770836 231.990014,105.171875 C232.409287,104.572914 232.61892,103.747401 232.61892,102.695312 C232.61892,101.627599 232.409287,100.808597 231.990014,100.238281 C231.570741,99.6679659 230.980903,99.3828125 230.220483,99.3828125 Z M243.157114,107 L243.157114,101.460938 C243.157114,100.763017 242.998261,100.242189 242.680552,99.8984375 C242.362842,99.5546858 241.865451,99.3828125 241.188364,99.3828125 C240.287318,99.3828125 239.629772,99.6276017 239.215708,100.117188 C238.801643,100.606773 238.594614,101.408849 238.594614,102.523438 L238.594614,107 L237.297739,107 L237.297739,94.84375 L238.594614,94.84375 L238.594614,98.5234375 C238.594614,98.966148 238.573781,99.3333319 238.532114,99.625 L238.610239,99.625 C238.865449,99.2135396 239.228726,98.8893241 239.700083,98.6523438 C240.171439,98.4153634 240.709194,98.296875 241.313364,98.296875 C242.360244,98.296875 243.145393,98.5455704 243.668833,99.0429688 C244.192273,99.5403671 244.453989,100.330724 244.453989,101.414062 L244.453989,107 L243.157114,107 Z M258.29687,101.273438 C258.29687,102.736986 258.002603,103.95312 257.414058,104.921875 C256.825513,105.89063 255.994793,106.546873 254.92187,106.890625 L257.64062,109.71875 L255.710933,109.71875 L253.48437,107.140625 L253.054683,107.15625 C251.372383,107.15625 250.074219,106.641932 249.160152,105.613281 C248.246085,104.58463 247.789058,103.132822 247.789058,101.257812 C247.789058,99.3984282 248.247387,97.9570364 249.164058,96.9335938 C250.080729,95.9101511 251.3828,95.3984375 253.070308,95.3984375 C254.710941,95.3984375 255.992178,95.9192656 256.914058,96.9609375 C257.835938,98.0026094 258.29687,99.440095 258.29687,101.273438 Z M249.195308,101.273438 C249.195308,102.82032 249.524732,103.993486 250.183589,104.792969 C250.842447,105.592452 251.799468,105.992188 253.054683,105.992188 C254.320314,105.992188 255.276034,105.593754 255.92187,104.796875 C256.567707,103.999996 256.89062,102.825529 256.89062,101.273438 C256.89062,99.7369715 256.569009,98.5716186 255.925777,97.7773438 C255.282544,96.9830689 254.330731,96.5859375 253.070308,96.5859375 C251.804677,96.5859375 250.842447,96.9856731 250.183589,97.7851562 C249.524732,98.5846394 249.195308,99.7473882 249.195308,101.273438 Z M261.913189,107 L261.913189,95.578125 L263.241314,95.578125 L263.241314,105.796875 L268.280377,105.796875 L268.280377,107 L261.913189,107 Z M281.40364,96.6015625 C280.148425,96.6015625 279.15755,97.0195271 278.430984,97.8554688 C277.704417,98.6914104 277.34114,99.8359302 277.34114,101.289062 C277.34114,102.783862 277.691397,103.938798 278.391921,104.753906 C279.092445,105.569014 280.091133,105.976562 281.388015,105.976562 C282.184894,105.976562 283.093739,105.833335 284.114577,105.546875 L284.114577,106.710938 C283.322907,107.007814 282.346354,107.15625 281.18489,107.15625 C279.50259,107.15625 278.204426,106.645838 277.290359,105.625 C276.376291,104.604162 275.919265,103.153655 275.919265,101.273438 C275.919265,100.096348 276.139315,99.0651086 276.579421,98.1796875 C277.019527,97.2942664 277.654938,96.6119816 278.485671,96.1328125 C279.316404,95.6536434 280.294259,95.4140625 281.419265,95.4140625 C282.617187,95.4140625 283.664052,95.6328103 284.55989,96.0703125 L283.99739,97.2109375 C283.132802,96.8046855 282.268227,96.6015625 281.40364,96.6015625 Z M292.730896,107 L288.855896,96.875 L288.793396,96.875 C288.866313,97.6770873 288.902771,98.6302028 288.902771,99.734375 L288.902771,107 L287.676209,107 L287.676209,95.578125 L289.676209,95.578125 L293.293396,105 L293.355896,105 L297.004334,95.578125 L298.988709,95.578125 L298.988709,107 L297.660584,107 L297.660584,99.640625 C297.660584,98.7968708 297.697042,97.8802133 297.769959,96.890625 L297.707459,96.890625 L293.801209,107 L292.730896,107 Z M309.636278,103.960938 C309.636278,104.966151 309.271698,105.749997 308.542528,106.3125 C307.813357,106.875003 306.823784,107.15625 305.573778,107.15625 C304.219604,107.15625 303.177948,106.981773 302.448778,106.632812 L302.448778,105.351562 C302.91753,105.54948 303.427942,105.705729 303.980028,105.820312 C304.532114,105.934896 305.078983,105.992188 305.620653,105.992188 C306.506074,105.992188 307.172734,105.82422 307.620653,105.488281 C308.068572,105.152342 308.292528,104.684899 308.292528,104.085938 C308.292528,103.690102 308.213101,103.365887 308.054246,103.113281 C307.895391,102.860676 307.629769,102.627605 307.257371,102.414062 C306.884974,102.20052 306.318573,101.958335 305.558153,101.6875 C304.495647,101.30729 303.73654,100.856773 303.280809,100.335938 C302.825077,99.8151016 302.597215,99.1354209 302.597215,98.296875 C302.597215,97.4166623 302.927941,96.7161484 303.589403,96.1953125 C304.250864,95.6744766 305.125856,95.4140625 306.214403,95.4140625 C307.349825,95.4140625 308.394085,95.6223938 309.347215,96.0390625 L308.933153,97.1953125 C307.99044,96.7994772 307.073782,96.6015625 306.183153,96.6015625 C305.480024,96.6015625 304.93055,96.7526027 304.534715,97.0546875 C304.13888,97.3567723 303.940965,97.776039 303.940965,98.3125 C303.940965,98.7083353 304.013881,99.0325508 304.159715,99.2851562 C304.305549,99.5377617 304.551641,99.7695302 304.897996,99.9804688 C305.244352,100.191407 305.774295,100.424478 306.48784,100.679688 C307.685763,101.106773 308.509973,101.565102 308.960496,102.054688 C309.41102,102.544273 309.636278,103.179684 309.636278,103.960938 Z" id="The-GraphQL-CMS" fill="#4A1357"></path>
        </g>
    </g>
</svg>